<svg xmlns="http://www.w3.org/2000/svg" id="Layer_1" data-name="Layer 1" viewBox="0 0 157.5 48.79"><defs><style>      .cls-1 {        fill: #fff;      }    </style></defs><path class="cls-1" d="m97.43,9.93c.28-1.4,1.17-2.01,2.23-2.01,1.45,0,1.9.95,1.9,2.01h-4.13Zm2.63,8.99c1.56,0,3.57-.56,5.08-1.62l-1.57-2.85c-1,.56-1.9.84-2.85.84-1.56,0-2.79-.56-3.24-2.23h7.96c.08-.34.19-1.18.19-2.02,0-3.74-1.96-6.76-6.09-6.75-3.41,0-6.7,2.8-6.69,7.32,0,4.64,3.13,7.31,7.21,7.31Zm-17.87-.32h4.8s0-7.77,0-7.77c.67-1.73,1.9-2.35,2.9-2.35.61,0,1.06.11,1.56.22l.78-4.13c-.39-.17-.87-.28-1.73-.28-1.37,0-2.93.84-3.96,2.74h-.11s-.34-2.4-.34-2.4h-3.91s.01,13.97.01,13.97Zm-13.06,5.26c3.46,0,4.97-1.71,6.42-5.48l4.68-13.74h-4.58s-1.39,5.37-1.39,5.37c-.33,1.34-.61,2.63-.89,3.97h-.11c-.34-1.4-.62-2.68-1.01-3.96l-1.68-5.36h-4.8s5.32,13.46,5.32,13.46l-.17.61c-.28.84-.89,1.4-2.18,1.4-.28,0-.64-.11-.89-.17l-.83,3.63c.61.17,1.17.28,2.12.28Zm-13.41-5.24h4.8s-.01-14.13-.01-14.13h4.8s0-4.03,0-4.03h-14.41s0,4.04,0,4.04h4.8s.01,14.13.01,14.13Z"></path><path class="cls-1" d="m151.53,44.14c3.91,0,5.97-2.02,5.97-4.64,0-2.51-1.9-3.57-3.58-4.19-1.4-.5-2.63-.78-2.63-1.51,0-.56.42-.78,1.23-.78.87,0,1.84.45,2.85,1.17l2.12-2.85c-1.23-.92-2.85-1.84-5.14-1.84-3.3,0-5.53,1.79-5.52,4.53,0,2.29,1.9,3.49,3.52,4.13,1.4.56,2.68.89,2.68,1.62,0,.56-.39.84-1.4.84-.98,0-2.12-.44-3.41-1.39l-2.12,2.96c1.45,1.17,3.63,1.95,5.42,1.95Zm-15.14-8.98c.28-1.4,1.17-2.01,2.23-2.01,1.45,0,1.9.95,1.9,2.01h-4.13Zm2.63,8.99c1.56,0,3.57-.56,5.08-1.62l-1.57-2.85c-1,.56-1.9.84-2.85.84-1.56,0-2.79-.56-3.24-2.23h7.96c.08-.34.19-1.18.19-2.02,0-3.74-1.96-6.76-6.09-6.75-3.41,0-6.7,2.8-6.69,7.32,0,4.64,3.13,7.31,7.21,7.31Zm-12.13-16.02c1.56,0,2.68-1.01,2.68-2.4,0-1.4-1.12-2.4-2.68-2.4-1.56,0-2.68,1.01-2.68,2.4,0,1.4,1.12,2.4,2.68,2.4Zm-2.39,15.7h4.8s-.01-13.97-.01-13.97h-4.8s.01,13.97.01,13.97Zm-4.02.34c1.06,0,1.84-.17,2.35-.39l-.56-3.52c-.22.06-.34.06-.5.06-.34,0-.78-.28-.78-1.23v-14.69s-4.82,0-4.82,0v14.52c.02,3.13,1.08,5.25,4.32,5.25Zm-13.91-3.9c-.61,0-1.23-.17-1.79-.67v-5.14c.61-.73,1.17-1.01,1.89-1.01,1.28,0,1.96.95,1.96,3.24,0,2.68-.95,3.58-2.06,3.58Zm-6.58,8.5h4.8s0-3.86,0-3.86l-.17-2.12c.89.89,1.96,1.39,3.13,1.39,2.96,0,5.81-2.74,5.8-7.55,0-4.3-2.13-7.09-5.42-7.09-1.4,0-2.76.67-3.8,1.62h-.11s-.34-1.28-.34-1.28h-3.91s.02,18.88.02,18.88Zm-9.61-8.48c-.61,0-1.23-.17-1.79-.67v-5.14c.61-.73,1.17-1.01,1.89-1.01,1.28,0,1.96.95,1.96,3.24,0,2.68-.95,3.58-2.06,3.58Zm-6.58,8.5h4.8s0-3.86,0-3.86l-.17-2.12c.89.89,1.96,1.39,3.13,1.39,2.96,0,5.81-2.74,5.8-7.55,0-4.3-2.13-7.09-5.42-7.09-1.4,0-2.76.67-3.8,1.62h-.11s-.34-1.28-.34-1.28h-3.91s.02,18.88.02,18.88Zm-11.9-4.57c1.9,0,3.18-.84,4.3-2.18h.11s.34,1.84.34,1.84h3.91s-.01-13.97-.01-13.97h-4.8s0,9,0,9c-.61.89-1.12,1.23-2.01,1.23-.95,0-1.4-.45-1.4-2.23v-7.99s-4.81,0-4.81,0v8.6c.01,3.46,1.3,5.7,4.37,5.69Zm-13.85.01c4.52,0,7.09-2.74,7.09-5.82,0-2.51-1.29-4.08-3.55-4.97l-2.21-.86c-1.65-.64-2.68-.95-2.68-1.81,0-.81.72-1.23,1.9-1.23,1.34,0,2.4.44,3.63,1.31l2.4-3.02c-1.68-1.65-3.97-2.43-6.03-2.42-3.97,0-6.76,2.55-6.75,5.65,0,2.62,1.71,4.27,3.66,5.05l2.26.95c1.54.61,2.46.89,2.46,1.76,0,.81-.61,1.29-2.07,1.29-1.34,0-2.96-.72-4.25-1.76l-2.73,3.3c1.96,1.76,4.58,2.59,6.87,2.59Z"></path><path class="cls-1" d="m19.28,14.87c-.15-.31-.38-.54-.61-.76.23-.15.54-.23.76-.31v.15l-.15.92Z"></path><path class="cls-1" d="m21.19,33.15c.08.15,0,.46-.08.46-.54.23-1.07.31-1.61.31-.23,0-.38,0-.61-.08-.54-.08-1.07-.23-1.53-.54.08-.08.15-.15.23-.23.84-.92,1.61-2.06,2.22-3.36l1.38,3.44Z"></path><path class="cls-1" d="m26.54,19.07l-3.44.76v-.15l.46-5.28v-.15c1.3.84,2.37,2.37,2.98,4.28.15.23,0,.46,0,.54Z"></path><path class="cls-1" d="m27.08,24.27v.38c-.31,2.14-.99,4.13-2.14,5.81l-1.3-4.36c-.08-.15,0-.38.08-.46l3.36-1.38Z"></path><path class="cls-1" d="m25.39,31.16c-.38.46-.92.38-1.07-.23l-1.38-4.66c-.15-.54.08-1.22.54-1.38l3.67-1.45c.46-.15.84.31.76.99v.31c-.46,2.45-1.3,4.66-2.52,6.42Zm-4.05,3.14c-.84.31-1.68.38-2.6.31-.92-.15-1.68-.46-2.45-.99-.38-.31-.46-1.07-.08-1.53l2.83-3.75c.31-.46.84-.38.99.15l1.76,4.36c.31.54,0,1.3-.46,1.45Zm-6.88-4.74c-.31.54-.92.46-1.07-.08-.76-1.99-.99-4.36-.69-6.81,0-.08,0-.15.08-.31.08-.69.61-1.07.99-.76l3.14,2.37c.38.31.38.99.15,1.45l-2.6,4.13Zm.38-12.92c1.22-1.91,2.91-3.21,4.66-3.67.46-.15.84.46.76,1.07l-.92,5.2c-.08.61-.54.99-.92.76l-3.36-1.76c-.46-.31-.54-1.07-.23-1.61Zm4.36,6.42c-.15.38-.46.61-.76.38-.23-.15-.38-.61-.23-1.07.15-.38.46-.61.76-.38.31.15.38.69.23,1.07Zm.15,2.98c-.23.31-.61.38-.76.08-.23-.31-.23-.76,0-1.15.23-.31.61-.38.76-.08.23.38.23.84,0,1.15Zm1.38-5.58c.31.08.54.46.46.84-.08.46-.38.76-.69.69s-.54-.46-.46-.84c.08-.38.38-.76.69-.69Zm.76,4.97c.15.38,0,.84-.31,1.07-.31.23-.61.08-.76-.31-.15-.38,0-.84.31-1.07.31-.23.61-.08.76.31Zm.38-3.06c.31-.08.61.15.61.61s-.15.84-.46.92c-.31.08-.61-.15-.61-.61-.08-.38.15-.76.46-.92Zm1.99-8.79c1.61.92,2.83,2.68,3.52,4.82.15.61-.08,1.3-.61,1.45l-3.67.84c-.46.08-.76-.38-.69-.99l.46-5.2c0-.76.54-1.22.99-.92Zm4.89,9.18c0-1.15-.08-2.29-.31-3.36-.69-3.67-2.75-6.5-5.43-7.42-.38-.15-.76-.23-1.22-.31-.38-.08-.84-.08-1.22-.08-2.83.23-5.51,2.45-7.19,5.74-.46.99-.92,2.06-1.22,3.21-.15.69-.31,1.3-.38,1.99-.46,3.36.08,6.58,1.38,8.95.46.92.99,1.68,1.68,2.29,1.07,1.07,2.29,1.68,3.75,1.91,1.38.23,2.83-.15,4.05-.84.76-.46,1.53-1.07,2.22-1.76,1.84-1.99,3.21-4.89,3.67-8.26.15-.69.23-1.38.23-2.06Z"></path><path class="cls-1" d="m30.14,24.66c-.38,3.9-1.91,7.34-4.05,9.71-.76.84-1.61,1.61-2.52,2.14-1.45.84-3.14,1.3-4.74,1.15-1.68-.15-3.14-.92-4.44-2.06-.76-.69-1.45-1.61-2.06-2.6-1.53-2.83-2.29-6.5-1.91-10.48.08-.76.23-1.61.38-2.37.31-1.3.76-2.6,1.3-3.75,1.84-3.9,4.89-6.58,8.26-6.88.46-.08.92-.08,1.45,0,.46.08.92.15,1.38.31,3.21.99,5.66,4.28,6.58,8.49.31,1.22.46,2.52.46,3.9.08.84.08,1.61-.08,2.45ZM21.95,6.84c-6.58-.61-12.54,6.35-13.46,15.6-.92,9.25,3.67,17.28,10.17,17.89,6.5.61,12.54-6.35,13.38-15.6.99-9.25-3.59-17.28-10.09-17.89Z"></path><path class="cls-1" d="m32.05,24.73c-.92,9.48-7.11,16.67-13.76,16.06-6.73-.69-11.39-8.87-10.48-18.35.92-9.48,7.11-16.67,13.76-16.06,6.65.69,11.39,8.87,10.48,18.35ZM21.42,5.39h0c-3.67-.99-8.79-.08-9.18,0C6.2,6.3,1.15,12.73.16,21.06c-.92,8.03,2.22,15.29,7.34,18.05,1.68.92,8.56,3.52,13.46,1.99,5.58-1.38,10.25-7.8,11.16-15.98,1.07-9.79-3.75-18.58-10.71-19.73Z"></path><rect class="cls-1" x="41.3" width=".67" height="46.5"></rect></svg>